# xmcd
#
# Track frame offsets:
#	150
#	30942
#	57748
#	80808
#	100275
#	116384
#	133594
#	148312
#	170329
#	198141
#	228482
#	234886
#	261953
#
# Disc length: 3756 seconds
#
# Revision: 0
# Processed by: cddbd v1.5.1PL0 Copyright (c) Steve Scherf et al.
# Submitted via: dBpowerAMP V4.0
#
DISCID=b10eaa0d
DTITLE=Pura Fé - Follow Your Heart's Desire
DYEAR=2005
DGENRE=Country Roots
TTITLE0=Follow Your Heart's Desire
TTITLE1=You Still Take
TTITLE2=Whole World Down On Me
TTITLE3=Wait Till You Come Back Again
TTITLE4=Catch Me Fast
TTITLE5=The Promise of It's Shine
TTITLE6=Robin Dance
TTITLE7=Don't Trade Your Legs for a Pair of Wings
TTITLE8=Rise Up Tuscarora Nation
TTITLE9=Della Blackman/Pick and Choose
TTITLE10=Pigeon Dance
TTITLE11=Going Homme/Stomp Dance
TTITLE12=Sweet Willie
EXTD=Music Maker Recordings\n
EXTT0=
EXTT1=
EXTT2=
EXTT3=
EXTT4=
EXTT5=
EXTT6=
EXTT7=
EXTT8=
EXTT9=
EXTT10=
EXTT11=
EXTT12=
PLAYORDER=
